<svg width="183" height="191" viewBox="0 0 183 191" fill="none" xmlns="http://www.w3.org/2000/svg">
<path d="M53.416 49.792L98.728 144H82.216L74.152 125.568H31.016L22.952 144H6.952L52.008 49.792H53.416ZM47.016 89.856L36.776 112.64H68.52L58.408 89.984L52.904 77.056H52.648L47.016 89.856Z" fill="black"/>
<path d="M53.416 49.792L54.3172 49.3585L54.0447 48.792H53.416V49.792ZM98.728 144V145H100.319L99.6292 143.567L98.728 144ZM82.216 144L81.2998 144.401L81.562 145H82.216V144ZM74.152 125.568L75.0682 125.167L74.806 124.568H74.152V125.568ZM31.016 125.568V124.568H30.362L30.0998 125.167L31.016 125.568ZM22.952 144V145H23.606L23.8682 144.401L22.952 144ZM6.952 144L6.04987 143.569L5.36526 145H6.952V144ZM52.008 49.792V48.792H51.3778L51.1059 49.3605L52.008 49.792ZM47.016 89.856L47.9281 90.266L47.9313 90.2587L47.016 89.856ZM36.776 112.64L35.8639 112.23L35.2302 113.64H36.776V112.64ZM68.52 112.64V113.64H70.0614L69.4332 112.232L68.52 112.64ZM58.408 89.984L57.4879 90.3757L57.4913 90.3837L57.4948 90.3916L58.408 89.984ZM52.904 77.056L53.8241 76.6643L53.5651 76.056H52.904V77.056ZM52.648 77.056V76.056H51.9955L51.7327 76.6533L52.648 77.056ZM52.5148 50.2254L97.8268 144.433L99.6292 143.567L54.3172 49.3585L52.5148 50.2254ZM98.728 143H82.216V145H98.728V143ZM83.1322 143.599L75.0682 125.167L73.2358 125.969L81.2998 144.401L83.1322 143.599ZM74.152 124.568H31.016V126.568H74.152V124.568ZM30.0998 125.167L22.0358 143.599L23.8682 144.401L31.9322 125.969L30.0998 125.167ZM22.952 143H6.952V145H22.952V143ZM7.85413 144.431L52.9101 50.2234L51.1059 49.3605L6.04987 143.569L7.85413 144.431ZM52.008 50.792H53.416V48.792H52.008V50.792ZM46.1039 89.4461L35.8639 112.23L37.6881 113.05L47.9281 90.2659L46.1039 89.4461ZM36.776 113.64H68.52V111.64H36.776V113.64ZM69.4332 112.232L59.3212 89.5764L57.4948 90.3916L67.6068 113.048L69.4332 112.232ZM59.3281 89.5923L53.8241 76.6643L51.9839 77.4477L57.4879 90.3757L59.3281 89.5923ZM52.904 76.056H52.648V78.056H52.904V76.056ZM51.7327 76.6533L46.1007 89.4533L47.9313 90.2587L53.5633 77.4587L51.7327 76.6533Z" fill="black"/>
<path d="M112.584 144.208L67.272 50H83.784L91.848 68.432L134.984 68.432L143.048 50H159.048L113.992 144.208H112.584ZM118.984 104.144L129.224 81.36L97.48 81.36L107.592 104.016L113.096 116.944H113.352L118.984 104.144Z" fill="black"/>
<path d="M112.584 144.208L111.683 144.641L111.955 145.208H112.584V144.208ZM67.272 50V49H65.6814L66.3708 50.4334L67.272 50ZM83.784 50L84.7002 49.5992L84.438 49H83.784V50ZM91.848 68.432L90.9318 68.8328L91.194 69.432H91.848V68.432ZM134.984 68.432V69.432H135.638L135.9 68.8328L134.984 68.432ZM143.048 50V49H142.394L142.132 49.5992L143.048 50ZM159.048 50L159.95 50.4315L160.635 49H159.048V50ZM113.992 144.208V145.208H114.622L114.894 144.639L113.992 144.208ZM118.984 104.144L118.072 103.734L118.069 103.741L118.984 104.144ZM129.224 81.36L130.136 81.7699L130.77 80.36H129.224V81.36ZM97.48 81.36V80.36H95.9386L96.5668 81.7676L97.48 81.36ZM107.592 104.016L108.512 103.624L108.509 103.616L108.505 103.608L107.592 104.016ZM113.096 116.944L112.176 117.336L112.435 117.944H113.096V116.944ZM113.352 116.944V117.944H114.005L114.267 117.347L113.352 116.944ZM113.485 143.775L68.1732 49.5666L66.3708 50.4334L111.683 144.641L113.485 143.775ZM67.272 51H83.784V49H67.272V51ZM82.8678 50.4008L90.9318 68.8328L92.7642 68.0312L84.7002 49.5992L82.8678 50.4008ZM91.848 69.432L134.984 69.432V67.432L91.848 67.432V69.432ZM135.9 68.8328L143.964 50.4008L142.132 49.5992L134.068 68.0312L135.9 68.8328ZM143.048 51H159.048V49H143.048V51ZM158.146 49.5685L113.09 143.777L114.894 144.639L159.95 50.4315L158.146 49.5685ZM113.992 143.208H112.584V145.208H113.992V143.208ZM119.896 104.554L130.136 81.7699L128.312 80.9501L118.072 103.734L119.896 104.554ZM129.224 80.36L97.48 80.36V82.36L129.224 82.36V80.36ZM96.5668 81.7676L106.679 104.424L108.505 103.608L98.3932 80.9524L96.5668 81.7676ZM106.672 104.408L112.176 117.336L114.016 116.552L108.512 103.624L106.672 104.408ZM113.096 117.944H113.352V115.944H113.096V117.944ZM114.267 117.347L119.899 104.547L118.069 103.741L112.437 116.541L114.267 117.347Z" fill="black"/>
<path d="M47.416 46.792L92.728 141H76.216L68.152 122.568H25.016L16.952 141H0.952L46.008 46.792H47.416ZM41.016 86.856L30.776 109.64H62.52L52.408 86.984L46.904 74.056H46.648L41.016 86.856Z" fill="#008CBB"/>
<path d="M47.416 46.792L48.3172 46.3585L48.0447 45.792H47.416V46.792ZM92.728 141V142H94.3186L93.6292 140.567L92.728 141ZM76.216 141L75.2998 141.401L75.562 142H76.216V141ZM68.152 122.568L69.0682 122.167L68.806 121.568H68.152V122.568ZM25.016 122.568V121.568H24.362L24.0998 122.167L25.016 122.568ZM16.952 141V142H17.606L17.8682 141.401L16.952 141ZM0.952 141L0.0498657 140.569L-0.634743 142H0.952V141ZM46.008 46.792V45.792H45.3778L45.1059 46.3605L46.008 46.792ZM41.016 86.856L41.9281 87.266L41.9313 87.2587L41.016 86.856ZM30.776 109.64L29.8639 109.23L29.2302 110.64H30.776V109.64ZM62.52 109.64V110.64H64.0614L63.4332 109.232L62.52 109.64ZM52.408 86.984L51.4879 87.3757L51.4913 87.3837L51.4948 87.3916L52.408 86.984ZM46.904 74.056L47.8241 73.6643L47.5651 73.056H46.904V74.056ZM46.648 74.056V73.056H45.9955L45.7327 73.6533L46.648 74.056ZM46.5148 47.2254L91.8268 141.433L93.6292 140.567L48.3172 46.3585L46.5148 47.2254ZM92.728 140H76.216V142H92.728V140ZM77.1322 140.599L69.0682 122.167L67.2358 122.969L75.2998 141.401L77.1322 140.599ZM68.152 121.568H25.016V123.568H68.152V121.568ZM24.0998 122.167L16.0358 140.599L17.8682 141.401L25.9322 122.969L24.0998 122.167ZM16.952 140H0.952V142H16.952V140ZM1.85413 141.431L46.9101 47.2234L45.1059 46.3605L0.0498657 140.569L1.85413 141.431ZM46.008 47.792H47.416V45.792H46.008V47.792ZM40.1039 86.4461L29.8639 109.23L31.6881 110.05L41.9281 87.2659L40.1039 86.4461ZM30.776 110.64H62.52V108.64H30.776V110.64ZM63.4332 109.232L53.3212 86.5764L51.4948 87.3916L61.6068 110.048L63.4332 109.232ZM53.3281 86.5923L47.8241 73.6643L45.9839 74.4477L51.4879 87.3757L53.3281 86.5923ZM46.904 73.056H46.648V75.056H46.904V73.056ZM45.7327 73.6533L40.1007 86.4533L41.9313 87.2587L47.5633 74.4587L45.7327 73.6533Z" fill="black"/>
<path d="M106.584 141.208L61.272 47H77.784L85.848 65.432L128.984 65.432L137.048 47H153.048L107.992 141.208H106.584ZM112.984 101.144L123.224 78.36L91.48 78.36L101.592 101.016L107.096 113.944H107.352L112.984 101.144Z" fill="#008CBB"/>
<path d="M106.584 141.208L105.683 141.641L105.955 142.208H106.584V141.208ZM61.272 47V46H59.6814L60.3708 47.4334L61.272 47ZM77.784 47L78.7002 46.5992L78.438 46H77.784V47ZM85.848 65.432L84.9318 65.8328L85.194 66.432H85.848V65.432ZM128.984 65.432V66.432H129.638L129.9 65.8328L128.984 65.432ZM137.048 47V46H136.394L136.132 46.5992L137.048 47ZM153.048 47L153.95 47.4315L154.635 46H153.048V47ZM107.992 141.208V142.208H108.622L108.894 141.639L107.992 141.208ZM112.984 101.144L112.072 100.734L112.069 100.741L112.984 101.144ZM123.224 78.36L124.136 78.7699L124.77 77.36H123.224V78.36ZM91.48 78.36V77.36H89.9386L90.5668 78.7676L91.48 78.36ZM101.592 101.016L102.512 100.624L102.509 100.616L102.505 100.608L101.592 101.016ZM107.096 113.944L106.176 114.336L106.435 114.944H107.096V113.944ZM107.352 113.944V114.944H108.005L108.267 114.347L107.352 113.944ZM107.485 140.775L62.1732 46.5666L60.3708 47.4334L105.683 141.641L107.485 140.775ZM61.272 48H77.784V46H61.272V48ZM76.8678 47.4008L84.9318 65.8328L86.7642 65.0312L78.7002 46.5992L76.8678 47.4008ZM85.848 66.432L128.984 66.432V64.432L85.848 64.432V66.432ZM129.9 65.8328L137.964 47.4008L136.132 46.5992L128.068 65.0312L129.9 65.8328ZM137.048 48H153.048V46H137.048V48ZM152.146 46.5685L107.09 140.777L108.894 141.639L153.95 47.4315L152.146 46.5685ZM107.992 140.208H106.584V142.208H107.992V140.208ZM113.896 101.554L124.136 78.7699L122.312 77.9501L112.072 100.734L113.896 101.554ZM123.224 77.36L91.48 77.36V79.36L123.224 79.36V77.36ZM90.5668 78.7676L100.679 101.424L102.505 100.608L92.3932 77.9524L90.5668 78.7676ZM100.672 101.408L106.176 114.336L108.016 113.552L102.512 100.624L100.672 101.408ZM107.096 114.944H107.352V112.944H107.096V114.944ZM108.267 114.347L113.899 101.547L112.069 100.741L106.437 113.541L108.267 114.347Z" fill="black"/>
</svg>
